# xmcd CD database file
#
# Track frame offsets:
#	150
#	14118
#	28688
#	42070
#	55641
#	68159
#	84915
#	99695
#	113455
#	131102
#	143929
#	159228
#	174203
#	189016
#	203964
#	218210
#	235614
#	248716
#	262800
#	274994
#
# Disc length: 3838 seconds
#
# Revision: 0
# Processed by: cddbd v1.4PL0 Copyright (c) Steve Scherf et al.
# Submitted via: CDex 1.40Release
#
DISCID=080efc14
DTITLE=Chico Rey e Paraná - As 20 mais
DYEAR=2003
DGENRE=Country
TTITLE0=Liguei pra dizer que te amo
TTITLE1=Tranque a porta e me beija
TTITLE2=Alma transparente
TTITLE3=Amor rebelde
TTITLE4=Perder você é abraçar a solidão
TTITLE5=Você não sabe amar
TTITLE6=Telefone mais
TTITLE7=Só você
TTITLE8=Quem será seu outro amor
TTITLE9=Tá com raiva de mim
TTITLE10=Canarinho prisioneiro
TTITLE11=Quem bate nunca se lembra
TTITLE12=Você me enganou
TTITLE13=Feiticeiro
TTITLE14=Outros caminhos sem você
TTITLE15=No colo da noite
TTITLE16=Laçada certeira
TTITLE17=Encanto e magia
TTITLE18=Amor com amor se paga
TTITLE19=Aproveita minha gente
EXTD=YEAR: 2003 ID3G: 2
EXTT0=
EXTT1=
EXTT2=
EXTT3=
EXTT4=
EXTT5=
EXTT6=
EXTT7=
EXTT8=
EXTT9=
EXTT10=
EXTT11=
EXTT12=
EXTT13=
EXTT14=
EXTT15=
EXTT16=
EXTT17=
EXTT18=
EXTT19=
PLAYORDER=
